<?xml version="1.0" encoding="UTF-8"?>
<svg width="60px" height="120px" viewBox="0 0 60 120" version="1.1" xmlns="http://www.w3.org/2000/svg" xmlns:xlink="http://www.w3.org/1999/xlink">
    <title>web3 foundation_grants_badge_black</title>
    <g id="页面-1" stroke="none" stroke-width="1" fill="none" fill-rule="evenodd">
        <g id="web3-foundation_grants_badge_black" transform="translate(0.48, 0.46)" fill="#000000" fill-rule="nonzero">
            <path d="M59.5201093,38.61 L59.5201093,29.81 C59.5227682,26.6174606 57.5941905,23.7404022 54.64,22.53 L0,0 L0,4.88 L48.67,24.88 C49.6943983,25.3245225 50.1745725,26.5071736 49.75,27.54 C49.5558704,28.0345357 49.1645357,28.4258704 48.67,28.62 L0,48.74 L0,68.37 L29.33,56.27 L48.61,64.22 C49.1088696,64.42308 49.5047403,64.8187923 49.70802,65.3175805 C49.9112998,65.8163688 49.904803,66.3760647 49.69,66.87 C49.4958704,67.3645357 49.1045357,67.7558704 48.61,67.95 L0,88.01 L0,119.01 L54.57,96.54 C57.5241905,95.3295978 59.4527682,92.4525394 59.45,89.26 L59.45,69.09 C59.4541037,65.8946473 57.5257616,63.0139888 54.57,61.8 L35.24,53.8 L54.57,45.85 C57.5656133,44.7015838 59.5370172,41.8181567 59.5201093,38.61 Z" id="路径"></path>
        </g>
    </g>
</svg>